<svg xmlns="http://www.w3.org/2000/svg" viewBox="0 0 236.7 48.5"><path fill="#d6597b" d="M33.1 25.4c.6 1.6 3.3-.5 4.2-1.2 2.5-1.9 4.9-3.9 7.5-5.6 2.8-1.9 9.2-5.2 9.6-5.4-1.3-.7-4.9.2-5.5.4-5.2 2.1-9.9 5.2-14.2 9-.4.3-1.9 2-1.6 2.8zM117.3 22.5c0 .1 0 .1.1.2-1.4-1-2.7-1.8-4.3-2.5 0-.6-.2-1-.3-1.8-.1-.3-.1-.5-.1-.8-.1-.9-.1-1.7 1.2-1.9 1.2-.2 2.2.3 2.8 1.1 1 1.4 1.4 2.9.9 4.4-.2.4-.4.9-.3 1.3zM197.9 18.9h-2.2c-.6 0-1.1.4-1.2 1l-.4 2.2c-.4-2.5-1.6-3.8-3.7-3.8-5.4 0-9.7 11.7-9.7 19.7 0 4.1 1.1 7.2 3.9 7.2 3.3 0 5.3-3 6.5-6.4v.7c0 1.7.1 2.8.3 4 .2-.1.3-.1.5 0l.1.1c.1 0 .1-.1.2-.1.8-.7 1.8-1.2 2.7-1.8v-.9c0-5.9 1.7-12.8 3.5-21 .2-.5-.1-.9-.5-.9zm-11.3 21.4c-.8 0-1.2-1.2-1.2-2.9 0-5.1 2.9-15.1 5.3-15.1 1.2 0 1.8 1.5 1.8 3.6 0 5.2-3.3 14.4-5.9 14.4zM64.6 19.5c1.3 0 2.3 1.2 2 2.5-1.4 6.4-2.3 11.7-3 16.7-.1.6-.1 1.1-.1 1.5 0 .8.2 1.2.5 1.2.6 0 3-2.7 5.7-9.7.3 0 1.6.5 1.6.8-3.4 9-6.2 13-8.8 13-1.8 0-2.8-1.6-2.8-5.5v-.6c-1.3 3.4-3.3 6.4-6.5 6.4-2.8 0-3.9-3-3.9-7.2 0-8 4.3-19.7 9.7-19.7 2.1 0 3.3 1.2 3.7 3.8L63 21c.1-.9.8-1.5 1.6-1.5zM53.9 38c0 1.8.3 2.9 1.2 2.9 2.6 0 5.8-9.2 5.8-14.5 0-2.1-.5-3.6-1.8-3.6-2.3.1-5.2 10.1-5.2 15.2z"/><path fill="#d6597b" d="M75.5 19.4c.9 0 1.5.8 1.3 1.6-1.8 8-3.2 14-3.2 18.4 0 1.6.6 1.9 1.1 1.9 1.5 0 3.3-3.2 5.8-9.7.3 0 1.6.4 1.6.7v.1c-2.5 6.4-4.5 13-9.1 13-3 0-4.1-2.8-4.1-6.7 0-5.4 1.8-12.8 3-17.4.3-1.1 1.3-2 2.5-2h1.1zM73 13.3c0-2 1.5-4.5 4-4.5 1.9 0 2.7 1.4 2.7 2.9 0 2-1.5 4.4-4 4.4-1.8 0-2.7-1.3-2.7-2.8z"/><path fill="#d6597b" d="M93.2 31.7c.3 0 1.4.5 1.4.7v.1c-3.3 9-5.9 13.3-9.6 13.3-3.4 0-4.7-3.3-4.7-9.2 0-4.1.7-9.5 1.8-16C84.6 6.4 88.1 0 91.4 0c2.9 0 3.8 2.4 3.8 5.3 0 3.3-1.1 7.3-1.7 9.1-2.3 7.4-6.1 12.9-8.4 15.7-.3 2.4-.5 4.6-.5 6.4 0 3.8.8 5 2.1 5 1.9-.1 4.1-3.6 6.5-9.8zM92.1 3.8c-1.5 0-4.9 12.2-6.5 22.7 2.8-5.1 7-14.6 7.1-21.5 0-.8-.3-1.2-.6-1.2z"/><path fill="#d6597b" d="M113.3 32.5c-1.3 3.4-3.8 5.8-6.5 6.7-1.9 4.1-4.8 6.5-8.4 6.5-3.9 0-5.6-4.1-5.6-9.2 0-2.5.4-5.3 1.1-8 .3-1.2 1.5-1.9 2.7-1.6.6-4.3 3-8.1 7-8.1 3.8 0 5.8 4.3 5.8 9.4 0 2.8-.7 5.6-1.4 8.1 1.5-.7 2.8-2.1 3.8-4.7.3.1 1.5.5 1.5.9zm-11.7 6.7c-2.4-.9-3.9-3.2-4.7-5.9-.1.8-.2 1.7-.2 2.4 0 3.3.9 5.6 2.3 5.6.2 0 .3 0 .5-.1.8 0 1.4-.8 2.1-2zm-2.2-9.1c0 3 .9 6 3.4 6.7 1.2-3 2.1-6.9 2.1-9.9 0-2.5-.6-4.5-2.2-4.5-.1 0-.3.1-.4.1-1.6.4-2.9 4-2.9 7.6z"/><path fill="#d6597b" d="M125.3 31.7c-2.5 6.5-4.5 9.5-5.7 9.5-.6 0-.9-.3-.9-1.2 0-2 2.6-6.7 2.6-10.3 0-3.2-2.4-5.5-4.3-7.4l.3-.9c-1.4-.9-2.8-1.9-4.2-2.9v.2c0 2 .5 3.5 1 4.7-.6 2.7-1.3 5.5-2.3 8.2v.1c0 .5 1.6.7 1.6.7l2.3-6c.6 1.2 1.1 2.5 1.1 4.2 0 2.9-2.6 6.9-2.6 10.6 0 2.5 1 4.2 3.7 4.2 4.6 0 6.6-6.5 9.1-13v-.1c-.1-.2-1.4-.6-1.7-.6z"/><path fill="#d6597b" d="M122.5 45.2s.5-5.1 2.1-9.4c.9-5.2 1.7-9.9 2.4-13.8.2-1.5 1.5-2.6 3-2.6h.4c1 0 1.7.9 1.5 1.8l-.3 2c1.8-2.7 4.1-4.4 6.4-4.4 2 0 3.3 1.3 3.3 4 0 5.3-3.7 12-3.7 16.6 0 1.6.6 1.9 1.1 1.9 1.5 0 3.3-3.2 5.8-9.7.3 0 1.6.5 1.6.8-2.5 6.4-5 13-9.7 13-2 0-3.8-1.6-3.8-5 0-6.2 3.8-12.6 3.7-16.7 0-.5-.4-.9-.9-.9-1.4 0-3.9 2.7-5.7 10.6l-2.3 11.7h-4.9z"/><path fill="#d6597b" d="M164.6 32.5c-1.3 3.4-3.8 5.8-6.5 6.7-1.9 4.1-4.8 6.5-8.4 6.5-3.9 0-5.6-4.1-5.6-9.2 0-2.6.4-5.4 1.2-8.2.3-1 1.3-1.6 2.4-1.4l.2.1c.6-4.3 3-8.1 7-8.1 3.8 0 5.8 4.3 5.8 9.4 0 2.8-.7 5.6-1.4 8.1 1.5-.7 2.8-2.1 3.8-4.7.3 0 1.5.4 1.5.8zm-11.7 6.7c-2.4-.9-3.9-3.2-4.7-5.9-.1.8-.2 1.7-.2 2.4 0 3.3.9 5.6 2.3 5.6.2 0 .3 0 .5-.1.8 0 1.5-.8 2.1-2zm-2.2-9.1c0 3 .9 6 3.4 6.7 1.2-3 2.1-6.9 2.1-9.9 0-2.5-.6-4.5-2.2-4.5-.1 0-.3.1-.4.1-1.6.4-2.9 4-2.9 7.6z"/><path fill="#d6597b" d="M171.1 34.8c-.7-1.9-1.1-4.3-1.1-6.8 0-6 2.2-12.4 5.9-12.4 2.3 0 3.9 1.8 3.9 5 0 5-2.1 11.1-5.1 16.3.5.2 1 .4 1.6.4 2.5 0 4-2.3 5.2-5.5.3 0 1.6.5 1.6.8-1.4 3.8-3.4 6.4-7.1 6.4-.8 0-1.5-.2-2.1-.6-1.4 2.4-3 4.5-4.6 6.1-.4.5-1.1.7-1.7.7h-.7c-.8 0-1.5-.6-1.5-1.4-.3-4.1-.6-7.9-.7-11.3-.3-.1-1.5-.4-1.5-.8l1.3-3.4c-.1-1.1-.1-2.1-.1-3.1 0-1.7 0-3.3.2-4.7.1-.6.6-1.1 1.2-1.1h2.1c.5 0 .9.4.9.9 0 1.5-.5 3-1.6 6 .2 3.2.5 7.7 1 13.5 1-1.5 2-3.3 2.9-5zm4.1-16.7c-1.8 0-3.2 5.4-3.2 10.5 0 1.2.1 2.4.3 3.6 2.4-5.7 3.6-11.2 3.6-13.1-.1-.8-.3-1-.7-1zM234.3 27.5c-.2-8.5-30.6 22.9-38.2 15.6-1.3-1.2-1.2-3.5-1-5.6-.2.1-1.9.4-2.1.5l2.1-.3-2.1.3c-.2.1-.8-.8-1.6-.6-.7 1.9-1.1 4.9 0 6.2 7.6 8.7 36.6-14.4 39.4-12.3h.1c.3.3.8.4 1.2.2 1.1-.5 2.5-1.7 2.2-4zM44.3 44.3c-4.7-.1 1.6-23.7 1.7-24-.1 0 .1.1 0 0 .5-2 3.1-10.2 4.1-13 .3-.8-.2-1.6-1-1.8-.7-.1-1.4 0-1.8.3-.7.4-3.5 8.5-3.6 8.8-.9 2.8-1.7 5-1.7 5-3 9.1-7.6 25.2 1.7 26.3 1.9 0 4.3-1 6.3-2.3-.2-.3-.7-1.7-.7-2-2 1.3-3.2 2.8-5 2.7z"/><g fill="#d6597b"><path d="M1.1 26.8c1.2-9.1 9.5-15.5 18.6-14.4S35.3 21.9 34.1 31s-9.5 15.5-18.6 14.4S0 35.9 1.1 26.8zm16 16c8.3 1.1 15.6-4.2 16.6-12.6 1.1-8.3-4.7-16.8-13.1-17-6-.1-14.1 4.8-15.2 13.1s3.4 15.4 11.7 16.5z"/><path d="M19.9 33.7c2.8-.9 4.3-2.9 3.8-4.8-.7.9-1.8 1.7-3.2 2.1-3.2 1-7 .1-8.3-2.1-.2-.3-.3-.7-.4-1-.8 1.1-1 2.5-.2 3.7 1.4 2.2 5.1 3.1 8.3 2.1"/><path d="M20.6 28.8c2.7-1.1 4-3.2 3.3-5.1-.6.9-1.6 1.8-3 2.4-3.1 1.3-7 .7-8.5-1.4-.2-.3-.4-.6-.5-1-.7 1.2-.7 2.5.1 3.7 1.6 2.1 5.5 2.7 8.6 1.4"/></g></svg>